<svg height="620pt" viewBox="0 0 2492.15 620" width="2492pt" xmlns="http://www.w3.org/2000/svg"><g class="graph" transform="translate(4 616)"><path fill="#fff" stroke="transparent" d="M-4 4v-620h2492.148V4H-4z"/><g class="node"><path fill="none" stroke="#000" d="M488.627-567.5v-44h283.225v44H488.627z"/><text font-family="Times,serif" font-size="14" text-anchor="middle" x="564.081" y="-585.3">input_static: InputLayer</text><path fill="none" stroke="#000" d="M639.535-567.5v-44"/><text font-family="Times,serif" font-size="14" text-anchor="middle" x="667.369" y="-596.3">input:</text><path fill="none" stroke="#000" d="M639.535-589.5h55.669"/><text font-family="Times,serif" font-size="14" text-anchor="middle" x="667.369" y="-574.3">output:</text><path fill="none" stroke="#000" d="M695.204-567.5v-44"/><text font-family="Times,serif" font-size="14" text-anchor="middle" x="733.528" y="-596.3">(None, 37)</text><path fill="none" stroke="#000" d="M695.204-589.5h76.648"/><text font-family="Times,serif" font-size="14" text-anchor="middle" x="733.528" y="-574.3">(None, 37)</text></g><g class="node"><path fill="none" stroke="#000" d="M439.248-486.5v-44h381.983v44H439.248z"/><text font-family="Times,serif" font-size="14" text-anchor="middle" x="550.081" y="-504.3">embedding_layer_static: Embedding</text><path fill="none" stroke="#000" d="M660.914-486.5v-44"/><text font-family="Times,serif" font-size="14" text-anchor="middle" x="688.749" y="-515.3">input:</text><path fill="none" stroke="#000" d="M660.914-508.5h55.669"/><text font-family="Times,serif" font-size="14" text-anchor="middle" x="688.749" y="-493.3">output:</text><path fill="none" stroke="#000" d="M716.583-486.5v-44"/><text font-family="Times,serif" font-size="14" text-anchor="middle" x="768.907" y="-515.3">(None, 37)</text><path fill="none" stroke="#000" d="M716.583-508.5h104.648"/><text font-family="Times,serif" font-size="14" text-anchor="middle" x="768.907" y="-493.3">(None, 37, 100)</text></g><g class="edge"><path d="M630.24-567.366v26.64" fill="none" stroke="#000"/><path stroke="#000" d="M633.74-540.607l-3.5 10-3.5-10h7z"/></g><g class="node"><path fill="none" stroke="#000" d="M1730.296-567.5v-44h301.887v44h-301.887z"/><text font-family="Times,serif" font-size="14" text-anchor="middle" x="1815.081" y="-585.3">input_dynamic: InputLayer</text><path fill="none" stroke="#000" d="M1899.866-567.5v-44"/><text font-family="Times,serif" font-size="14" text-anchor="middle" x="1927.7" y="-596.3">input:</text><path fill="none" stroke="#000" d="M1899.866-589.5h55.669"/><text font-family="Times,serif" font-size="14" text-anchor="middle" x="1927.7" y="-574.3">output:</text><path fill="none" stroke="#000" d="M1955.535-567.5v-44"/><text font-family="Times,serif" font-size="14" text-anchor="middle" x="1993.859" y="-596.3">(None, 37)</text><path fill="none" stroke="#000" d="M1955.535-589.5h76.648"/><text font-family="Times,serif" font-size="14" text-anchor="middle" x="1993.859" y="-574.3">(None, 37)</text></g><g class="node"><path fill="none" stroke="#000" d="M1680.917-486.5v-44h400.646v44h-400.646z"/><text font-family="Times,serif" font-size="14" text-anchor="middle" x="1801.081" y="-504.3">embedding_layer_dynamic: Embedding</text><path fill="none" stroke="#000" d="M1921.245-486.5v-44"/><text font-family="Times,serif" font-size="14" text-anchor="middle" x="1949.08" y="-515.3">input:</text><path fill="none" stroke="#000" d="M1921.245-508.5h55.67"/><text font-family="Times,serif" font-size="14" text-anchor="middle" x="1949.08" y="-493.3">output:</text><path fill="none" stroke="#000" d="M1976.914-486.5v-44"/><text font-family="Times,serif" font-size="14" text-anchor="middle" x="2029.238" y="-515.3">(None, 37)</text><path fill="none" stroke="#000" d="M1976.914-508.5h104.649"/><text font-family="Times,serif" font-size="14" text-anchor="middle" x="2029.238" y="-493.3">(None, 37, 100)</text></g><g class="edge"><path d="M1881.24-567.366v26.64" fill="none" stroke="#000"/><path stroke="#000" d="M1884.74-540.607l-3.5 10-3.5-10h7z"/></g><g class="node"><path fill="none" stroke="#000" d="M77.89-405.5v-44h330.7v44H77.89z"/><text font-family="Times,serif" font-size="14" text-anchor="middle" x="163.081" y="-423.3">Conv_dynamic_3: Conv1D</text><path fill="none" stroke="#000" d="M248.273-405.5v-44"/><text font-family="Times,serif" font-size="14" text-anchor="middle" x="276.107" y="-434.3">input:</text><path fill="none" stroke="#000" d="M248.273-427.5h55.668"/><text font-family="Times,serif" font-size="14" text-anchor="middle" x="276.107" y="-412.3">output:</text><path fill="none" stroke="#000" d="M303.941-405.5v-44"/><text font-family="Times,serif" font-size="14" text-anchor="middle" x="356.266" y="-434.3">(None, 37, 100)</text><path fill="none" stroke="#000" d="M303.941-427.5H408.59"/><text font-family="Times,serif" font-size="14" text-anchor="middle" x="356.266" y="-412.3">(None, 35, 100)</text></g><g class="edge"><path d="M525.001-486.473l-166.457 34.84" fill="none" stroke="#000"/><path stroke="#000" d="M358.962-448.145l-10.505-1.377 9.07-5.475 1.435 6.852z"/></g><g class="node"><path fill="none" stroke="#000" d="M464.89-405.5v-44h330.7v44h-330.7z"/><text font-family="Times,serif" font-size="14" text-anchor="middle" x="550.081" y="-423.3">Conv_dynamic_4: Conv1D</text><path fill="none" stroke="#000" d="M635.273-405.5v-44"/><text font-family="Times,serif" font-size="14" text-anchor="middle" x="663.107" y="-434.3">input:</text><path fill="none" stroke="#000" d="M635.273-427.5h55.668"/><text font-family="Times,serif" font-size="14" text-anchor="middle" x="663.107" y="-412.3">output:</text><path fill="none" stroke="#000" d="M690.941-405.5v-44"/><text font-family="Times,serif" font-size="14" text-anchor="middle" x="743.266" y="-434.3">(None, 37, 100)</text><path fill="none" stroke="#000" d="M690.941-427.5H795.59"/><text font-family="Times,serif" font-size="14" text-anchor="middle" x="743.266" y="-412.3">(None, 34, 100)</text></g><g class="edge"><path d="M630.24-486.366v26.64" fill="none" stroke="#000"/><path stroke="#000" d="M633.74-459.607l-3.5 10-3.5-10h7z"/></g><g class="node"><path fill="none" stroke="#000" d="M851.89-405.5v-44h330.7v44h-330.7z"/><text font-family="Times,serif" font-size="14" text-anchor="middle" x="937.081" y="-423.3">Conv_dynamic_5: Conv1D</text><path fill="none" stroke="#000" d="M1022.273-405.5v-44"/><text font-family="Times,serif" font-size="14" text-anchor="middle" x="1050.107" y="-434.3">input:</text><path fill="none" stroke="#000" d="M1022.273-427.5h55.668"/><text font-family="Times,serif" font-size="14" text-anchor="middle" x="1050.107" y="-412.3">output:</text><path fill="none" stroke="#000" d="M1077.941-405.5v-44"/><text font-family="Times,serif" font-size="14" text-anchor="middle" x="1130.266" y="-434.3">(None, 37, 100)</text><path fill="none" stroke="#000" d="M1077.941-427.5h104.649"/><text font-family="Times,serif" font-size="14" text-anchor="middle" x="1130.266" y="-412.3">(None, 33, 100)</text></g><g class="edge"><path d="M735.478-486.473l166.457 34.84" fill="none" stroke="#000"/><path stroke="#000" d="M902.952-454.997l9.07 5.475-10.505 1.377 1.435-6.852z"/></g><g class="node"><path fill="none" stroke="#000" d="M1356.22-405.5v-44h312.039v44H1356.22z"/><text font-family="Times,serif" font-size="14" text-anchor="middle" x="1432.081" y="-423.3">Conv_static_3: Conv1D</text><path fill="none" stroke="#000" d="M1507.941-405.5v-44"/><text font-family="Times,serif" font-size="14" text-anchor="middle" x="1535.776" y="-434.3">input:</text><path fill="none" stroke="#000" d="M1507.941-427.5h55.67"/><text font-family="Times,serif" font-size="14" text-anchor="middle" x="1535.776" y="-412.3">output:</text><path fill="none" stroke="#000" d="M1563.61-405.5v-44"/><text font-family="Times,serif" font-size="14" text-anchor="middle" x="1615.935" y="-434.3">(None, 37, 100)</text><path fill="none" stroke="#000" d="M1563.61-427.5h104.649"/><text font-family="Times,serif" font-size="14" text-anchor="middle" x="1615.935" y="-412.3">(None, 35, 100)</text></g><g class="edge"><path d="M1780.896-486.473l-158.4 34.77" fill="none" stroke="#000"/><path stroke="#000" d="M1623.081-448.248l-10.518-1.274 9.017-5.563 1.501 6.837z"/></g><g class="node"><path fill="none" stroke="#000" d="M1725.22-405.5v-44h312.039v44H1725.22z"/><text font-family="Times,serif" font-size="14" text-anchor="middle" x="1801.081" y="-423.3">Conv_static_4: Conv1D</text><path fill="none" stroke="#000" d="M1876.941-405.5v-44"/><text font-family="Times,serif" font-size="14" text-anchor="middle" x="1904.776" y="-434.3">input:</text><path fill="none" stroke="#000" d="M1876.941-427.5h55.67"/><text font-family="Times,serif" font-size="14" text-anchor="middle" x="1904.776" y="-412.3">output:</text><path fill="none" stroke="#000" d="M1932.61-405.5v-44"/><text font-family="Times,serif" font-size="14" text-anchor="middle" x="1984.935" y="-434.3">(None, 37, 100)</text><path fill="none" stroke="#000" d="M1932.61-427.5h104.649"/><text font-family="Times,serif" font-size="14" text-anchor="middle" x="1984.935" y="-412.3">(None, 34, 100)</text></g><g class="edge"><path d="M1881.24-486.366v26.64" fill="none" stroke="#000"/><path stroke="#000" d="M1884.74-459.607l-3.5 10-3.5-10h7z"/></g><g class="node"><path fill="none" stroke="#000" d="M2094.22-405.5v-44h312.039v44H2094.22z"/><text font-family="Times,serif" font-size="14" text-anchor="middle" x="2170.081" y="-423.3">Conv_static_5: Conv1D</text><path fill="none" stroke="#000" d="M2245.941-405.5v-44"/><text font-family="Times,serif" font-size="14" text-anchor="middle" x="2273.776" y="-434.3">input:</text><path fill="none" stroke="#000" d="M2245.941-427.5h55.67"/><text font-family="Times,serif" font-size="14" text-anchor="middle" x="2273.776" y="-412.3">output:</text><path fill="none" stroke="#000" d="M2301.61-405.5v-44"/><text font-family="Times,serif" font-size="14" text-anchor="middle" x="2353.935" y="-434.3">(None, 37, 100)</text><path fill="none" stroke="#000" d="M2301.61-427.5h104.649"/><text font-family="Times,serif" font-size="14" text-anchor="middle" x="2353.935" y="-412.3">(None, 33, 100)</text></g><g class="edge"><path d="M1981.583-486.473l158.401 34.77" fill="none" stroke="#000"/><path stroke="#000" d="M2140.9-455.085l9.016 5.563-10.518 1.274 1.501-6.837z"/></g><g class="node"><path fill="none" stroke="#000" d="M0-324.5v-44h408.48v44H0z"/><text font-family="Times,serif" font-size="14" text-anchor="middle" x="124.081" y="-342.3">MaxPooling_dynamic_3: MaxPooling1D</text><path fill="none" stroke="#000" d="M248.162-324.5v-44"/><text font-family="Times,serif" font-size="14" text-anchor="middle" x="275.997" y="-353.3">input:</text><path fill="none" stroke="#000" d="M248.162-346.5h55.67"/><text font-family="Times,serif" font-size="14" text-anchor="middle" x="275.997" y="-331.3">output:</text><path fill="none" stroke="#000" d="M303.831-324.5v-44"/><text font-family="Times,serif" font-size="14" text-anchor="middle" x="356.155" y="-353.3">(None, 35, 100)</text><path fill="none" stroke="#000" d="M303.831-346.5H408.48"/><text font-family="Times,serif" font-size="14" text-anchor="middle" x="356.155" y="-331.3">(None, 17, 100)</text></g><g class="edge"><path d="M232.583-405.366l-13.247 27.513" fill="none" stroke="#000"/><path stroke="#000" d="M222.375-376.099l-7.491 7.492 1.185-10.528 6.306 3.036z"/></g><g class="node"><path fill="none" stroke="#000" d="M426-324.5v-44h408.48v44H426z"/><text font-family="Times,serif" font-size="14" text-anchor="middle" x="550.081" y="-342.3">MaxPooling_dynamic_4: MaxPooling1D</text><path fill="none" stroke="#000" d="M674.162-324.5v-44"/><text font-family="Times,serif" font-size="14" text-anchor="middle" x="701.997" y="-353.3">input:</text><path fill="none" stroke="#000" d="M674.162-346.5h55.67"/><text font-family="Times,serif" font-size="14" text-anchor="middle" x="701.997" y="-331.3">output:</text><path fill="none" stroke="#000" d="M729.831-324.5v-44"/><text font-family="Times,serif" font-size="14" text-anchor="middle" x="782.155" y="-353.3">(None, 34, 100)</text><path fill="none" stroke="#000" d="M729.831-346.5H834.48"/><text font-family="Times,serif" font-size="14" text-anchor="middle" x="782.155" y="-331.3">(None, 17, 100)</text></g><g class="edge"><path d="M630.24-405.366v26.64" fill="none" stroke="#000"/><path stroke="#000" d="M633.74-378.607l-3.5 10-3.5-10h7z"/></g><g class="node"><path fill="none" stroke="#000" d="M852-324.5v-44h408.48v44H852z"/><text font-family="Times,serif" font-size="14" text-anchor="middle" x="976.081" y="-342.3">MaxPooling_dynamic_5: MaxPooling1D</text><path fill="none" stroke="#000" d="M1100.162-324.5v-44"/><text font-family="Times,serif" font-size="14" text-anchor="middle" x="1127.997" y="-353.3">input:</text><path fill="none" stroke="#000" d="M1100.162-346.5h55.67"/><text font-family="Times,serif" font-size="14" text-anchor="middle" x="1127.997" y="-331.3">output:</text><path fill="none" stroke="#000" d="M1155.831-324.5v-44"/><text font-family="Times,serif" font-size="14" text-anchor="middle" x="1208.155" y="-353.3">(None, 33, 100)</text><path fill="none" stroke="#000" d="M1155.831-346.5h104.649"/><text font-family="Times,serif" font-size="14" text-anchor="middle" x="1208.155" y="-331.3">(None, 16, 100)</text></g><g class="edge"><path d="M1027.897-405.366l13.247 27.513" fill="none" stroke="#000"/><path stroke="#000" d="M1044.411-379.135l1.185 10.528-7.492-7.491 6.307-3.037z"/></g><g class="node"><path fill="none" stroke="#000" d="M1278.331-324.5v-44h389.817v44h-389.817z"/><text font-family="Times,serif" font-size="14" text-anchor="middle" x="1393.081" y="-342.3">MaxPooling_static_3: MaxPooling1D</text><path fill="none" stroke="#000" d="M1507.831-324.5v-44"/><text font-family="Times,serif" font-size="14" text-anchor="middle" x="1535.666" y="-353.3">input:</text><path fill="none" stroke="#000" d="M1507.831-346.5h55.669"/><text font-family="Times,serif" font-size="14" text-anchor="middle" x="1535.666" y="-331.3">output:</text><path fill="none" stroke="#000" d="M1563.5-324.5v-44"/><text font-family="Times,serif" font-size="14" text-anchor="middle" x="1615.824" y="-353.3">(None, 35, 100)</text><path fill="none" stroke="#000" d="M1563.5-346.5h104.648"/><text font-family="Times,serif" font-size="14" text-anchor="middle" x="1615.824" y="-331.3">(None, 17, 100)</text></g><g class="edge"><path d="M1501.583-405.366l-13.247 27.513" fill="none" stroke="#000"/><path stroke="#000" d="M1491.376-376.099l-7.492 7.492 1.185-10.528 6.307 3.036z"/></g><g class="node"><path fill="none" stroke="#000" d="M1686.331-324.5v-44h389.817v44h-389.817z"/><text font-family="Times,serif" font-size="14" text-anchor="middle" x="1801.081" y="-342.3">MaxPooling_static_4: MaxPooling1D</text><path fill="none" stroke="#000" d="M1915.831-324.5v-44"/><text font-family="Times,serif" font-size="14" text-anchor="middle" x="1943.666" y="-353.3">input:</text><path fill="none" stroke="#000" d="M1915.831-346.5h55.669"/><text font-family="Times,serif" font-size="14" text-anchor="middle" x="1943.666" y="-331.3">output:</text><path fill="none" stroke="#000" d="M1971.5-324.5v-44"/><text font-family="Times,serif" font-size="14" text-anchor="middle" x="2023.824" y="-353.3">(None, 34, 100)</text><path fill="none" stroke="#000" d="M1971.5-346.5h104.648"/><text font-family="Times,serif" font-size="14" text-anchor="middle" x="2023.824" y="-331.3">(None, 17, 100)</text></g><g class="edge"><path d="M1881.24-405.366v26.64" fill="none" stroke="#000"/><path stroke="#000" d="M1884.74-378.607l-3.5 10-3.5-10h7z"/></g><g class="node"><path fill="none" stroke="#000" d="M2094.331-324.5v-44h389.817v44h-389.817z"/><text font-family="Times,serif" font-size="14" text-anchor="middle" x="2209.081" y="-342.3">MaxPooling_static_5: MaxPooling1D</text><path fill="none" stroke="#000" d="M2323.831-324.5v-44"/><text font-family="Times,serif" font-size="14" text-anchor="middle" x="2351.666" y="-353.3">input:</text><path fill="none" stroke="#000" d="M2323.831-346.5h55.669"/><text font-family="Times,serif" font-size="14" text-anchor="middle" x="2351.666" y="-331.3">output:</text><path fill="none" stroke="#000" d="M2379.5-324.5v-44"/><text font-family="Times,serif" font-size="14" text-anchor="middle" x="2431.824" y="-353.3">(None, 33, 100)</text><path fill="none" stroke="#000" d="M2379.5-346.5h104.648"/><text font-family="Times,serif" font-size="14" text-anchor="middle" x="2431.824" y="-331.3">(None, 16, 100)</text></g><g class="edge"><path d="M2260.897-405.366l13.247 27.513" fill="none" stroke="#000"/><path stroke="#000" d="M2277.411-379.135l1.185 10.528-7.492-7.491 6.307-3.037z"/></g><g class="node"><path fill="none" stroke="#000" d="M96.9-243.5v-44h330.68v44H96.9z"/><text font-family="Times,serif" font-size="14" text-anchor="middle" x="182.081" y="-261.3">Flatten_dynamic_3: Flatten</text><path fill="none" stroke="#000" d="M267.262-243.5v-44"/><text font-family="Times,serif" font-size="14" text-anchor="middle" x="295.097" y="-272.3">input:</text><path fill="none" stroke="#000" d="M267.262-265.5h55.67"/><text font-family="Times,serif" font-size="14" text-anchor="middle" x="295.097" y="-250.3">output:</text><path fill="none" stroke="#000" d="M322.931-243.5v-44"/><text font-family="Times,serif" font-size="14" text-anchor="middle" x="375.255" y="-272.3">(None, 17, 100)</text><path fill="none" stroke="#000" d="M322.931-265.5H427.58"/><text font-family="Times,serif" font-size="14" text-anchor="middle" x="375.255" y="-250.3">(None, 1700)</text></g><g class="edge"><path d="M220.089-324.366l20.322 28.38" fill="none" stroke="#000"/><path stroke="#000" d="M243.434-297.775l2.976 10.168-8.667-6.093 5.69-4.075z"/></g><g class="node"><path fill="none" stroke="#000" d="M483.9-243.5v-44h330.68v44H483.9z"/><text font-family="Times,serif" font-size="14" text-anchor="middle" x="569.081" y="-261.3">Flatten_dynamic_4: Flatten</text><path fill="none" stroke="#000" d="M654.262-243.5v-44"/><text font-family="Times,serif" font-size="14" text-anchor="middle" x="682.097" y="-272.3">input:</text><path fill="none" stroke="#000" d="M654.262-265.5h55.67"/><text font-family="Times,serif" font-size="14" text-anchor="middle" x="682.097" y="-250.3">output:</text><path fill="none" stroke="#000" d="M709.931-243.5v-44"/><text font-family="Times,serif" font-size="14" text-anchor="middle" x="762.255" y="-272.3">(None, 17, 100)</text><path fill="none" stroke="#000" d="M709.931-265.5H814.58"/><text font-family="Times,serif" font-size="14" text-anchor="middle" x="762.255" y="-250.3">(None, 1700)</text></g><g class="edge"><path d="M635.432-324.366l6.317 26.932" fill="none" stroke="#000"/><path stroke="#000" d="M645.178-298.142l-1.124 10.535-5.691-8.936 6.815-1.599z"/></g><g class="node"><path fill="none" stroke="#000" d="M852.9-243.5v-44h330.68v44H852.9z"/><text font-family="Times,serif" font-size="14" text-anchor="middle" x="938.081" y="-261.3">Flatten_dynamic_5: Flatten</text><path fill="none" stroke="#000" d="M1023.262-243.5v-44"/><text font-family="Times,serif" font-size="14" text-anchor="middle" x="1051.097" y="-272.3">input:</text><path fill="none" stroke="#000" d="M1023.262-265.5h55.67"/><text font-family="Times,serif" font-size="14" text-anchor="middle" x="1051.097" y="-250.3">output:</text><path fill="none" stroke="#000" d="M1078.931-243.5v-44"/><text font-family="Times,serif" font-size="14" text-anchor="middle" x="1131.255" y="-272.3">(None, 16, 100)</text><path fill="none" stroke="#000" d="M1078.931-265.5h104.649"/><text font-family="Times,serif" font-size="14" text-anchor="middle" x="1131.255" y="-250.3">(None, 1600)</text></g><g class="edge"><path d="M1045.856-324.366l-12.907 27.513" fill="none" stroke="#000"/><path stroke="#000" d="M1036.027-295.174l-7.416 7.567 1.078-10.54 6.338 2.973z"/></g><g class="node"><path fill="none" stroke="#000" d="M1336.231-243.5v-44h312.017v44h-312.017z"/><text font-family="Times,serif" font-size="14" text-anchor="middle" x="1412.081" y="-261.3">Flatten_static_3: Flatten</text><path fill="none" stroke="#000" d="M1487.931-243.5v-44"/><text font-family="Times,serif" font-size="14" text-anchor="middle" x="1515.766" y="-272.3">input:</text><path fill="none" stroke="#000" d="M1487.931-265.5h55.67"/><text font-family="Times,serif" font-size="14" text-anchor="middle" x="1515.766" y="-250.3">output:</text><path fill="none" stroke="#000" d="M1543.6-243.5v-44"/><text font-family="Times,serif" font-size="14" text-anchor="middle" x="1595.924" y="-272.3">(None, 17, 100)</text><path fill="none" stroke="#000" d="M1543.6-265.5h104.649"/><text font-family="Times,serif" font-size="14" text-anchor="middle" x="1595.924" y="-250.3">(None, 1700)</text></g><g class="edge"><path d="M1478.432-324.366l6.317 26.932" fill="none" stroke="#000"/><path stroke="#000" d="M1488.178-298.142l-1.124 10.535-5.691-8.936 6.815-1.599z"/></g><g class="node"><path fill="none" stroke="#000" d="M1705.231-243.5v-44h312.017v44h-312.017z"/><text font-family="Times,serif" font-size="14" text-anchor="middle" x="1781.081" y="-261.3">Flatten_static_4: Flatten</text><path fill="none" stroke="#000" d="M1856.931-243.5v-44"/><text font-family="Times,serif" font-size="14" text-anchor="middle" x="1884.766" y="-272.3">input:</text><path fill="none" stroke="#000" d="M1856.931-265.5h55.67"/><text font-family="Times,serif" font-size="14" text-anchor="middle" x="1884.766" y="-250.3">output:</text><path fill="none" stroke="#000" d="M1912.6-243.5v-44"/><text font-family="Times,serif" font-size="14" text-anchor="middle" x="1964.924" y="-272.3">(None, 17, 100)</text><path fill="none" stroke="#000" d="M1912.6-265.5h104.649"/><text font-family="Times,serif" font-size="14" text-anchor="middle" x="1964.924" y="-250.3">(None, 1700)</text></g><g class="edge"><path d="M1875.775-324.366l-6.65 26.932" fill="none" stroke="#000"/><path stroke="#000" d="M1872.493-296.476l-5.795 8.87-1-10.548 6.795 1.678z"/></g><g class="node"><path fill="none" stroke="#000" d="M2093.231-243.5v-44h312.017v44h-312.017z"/><text font-family="Times,serif" font-size="14" text-anchor="middle" x="2169.081" y="-261.3">Flatten_static_5: Flatten</text><path fill="none" stroke="#000" d="M2244.931-243.5v-44"/><text font-family="Times,serif" font-size="14" text-anchor="middle" x="2272.766" y="-272.3">input:</text><path fill="none" stroke="#000" d="M2244.931-265.5h55.67"/><text font-family="Times,serif" font-size="14" text-anchor="middle" x="2272.766" y="-250.3">output:</text><path fill="none" stroke="#000" d="M2300.6-243.5v-44"/><text font-family="Times,serif" font-size="14" text-anchor="middle" x="2352.924" y="-272.3">(None, 16, 100)</text><path fill="none" stroke="#000" d="M2300.6-265.5h104.649"/><text font-family="Times,serif" font-size="14" text-anchor="middle" x="2352.924" y="-250.3">(None, 1600)</text></g><g class="edge"><path d="M2278.31-324.366c-4.19 8.482-9.052 18.329-13.587 27.513" fill="none" stroke="#000"/><path stroke="#000" d="M2267.723-295.023l-7.566 7.416 1.29-10.516 6.276 3.1z"/></g><g class="node"><path fill="none" stroke="#000" d="M675.951-162.5v-44h498.577v44H675.951z"/><text font-family="Times,serif" font-size="14" text-anchor="middle" x="765.77" y="-180.3">concatenate_10: Concatenate</text><path fill="none" stroke="#000" d="M855.59-162.5v-44"/><text font-family="Times,serif" font-size="14" text-anchor="middle" x="883.424" y="-191.3">input:</text><path fill="none" stroke="#000" d="M855.59-184.5h55.669"/><text font-family="Times,serif" font-size="14" text-anchor="middle" x="883.424" y="-169.3">output:</text><path fill="none" stroke="#000" d="M911.259-162.5v-44"/><text font-family="Times,serif" font-size="14" text-anchor="middle" x="1042.894" y="-191.3">[(None, 1700), (None, 1700), (None, 1600)]</text><path fill="none" stroke="#000" d="M911.259-184.5h263.27"/><text font-family="Times,serif" font-size="14" text-anchor="middle" x="1042.583" y="-169.3">(None, 5000)</text></g><g class="edge"><path d="M427.832-245.27l306.842 37.488" fill="none" stroke="#000"/><path stroke="#000" d="M735.39-211.22l9.501 4.686-10.35 2.262.849-6.948z"/></g><g class="edge"><path d="M724.293-243.473l116.12 34.078" fill="none" stroke="#000"/><path stroke="#000" d="M841.591-212.697l8.61 6.175-10.58.542 1.97-6.717z"/></g><g class="edge"><path d="M992.827-243.366l-34.564 30.104" fill="none" stroke="#000"/><path stroke="#000" d="M960.461-210.535l-9.84 3.928 5.243-9.207 4.597 5.279z"/></g><g class="node"><path fill="none" stroke="#000" d="M1357.451-162.5v-44h491.577v44h-491.577z"/><text font-family="Times,serif" font-size="14" text-anchor="middle" x="1443.771" y="-180.3">concatenate_9: Concatenate</text><path fill="none" stroke="#000" d="M1530.09-162.5v-44"/><text font-family="Times,serif" font-size="14" text-anchor="middle" x="1557.924" y="-191.3">input:</text><path fill="none" stroke="#000" d="M1530.09-184.5h55.669"/><text font-family="Times,serif" font-size="14" text-anchor="middle" x="1557.924" y="-169.3">output:</text><path fill="none" stroke="#000" d="M1585.759-162.5v-44"/><text font-family="Times,serif" font-size="14" text-anchor="middle" x="1717.394" y="-191.3">[(None, 1700), (None, 1700), (None, 1600)]</text><path fill="none" stroke="#000" d="M1585.759-184.5h263.27"/><text font-family="Times,serif" font-size="14" text-anchor="middle" x="1717.083" y="-169.3">(None, 5000)</text></g><g class="edge"><path d="M1522.571-243.366l42.034 30.673" fill="none" stroke="#000"/><path stroke="#000" d="M1566.93-215.329l6.015 8.722-10.14-3.067 4.125-5.655z"/></g><g class="edge"><path d="M1791.08-243.473l-108.103 33.94" fill="none" stroke="#000"/><path stroke="#000" d="M1683.974-206.178l-10.59-.344 8.493-6.335 2.097 6.679z"/></g><g class="edge"><path d="M2092.861-245.892l-303.77 38.089" fill="none" stroke="#000"/><path stroke="#000" d="M1789.316-204.304l-10.357-2.229 9.487-4.717.87 6.946z"/></g><g class="node"><path fill="none" stroke="#000" d="M973.032-81.5v-44h416.416v44H973.032z"/><text font-family="Times,serif" font-size="14" text-anchor="middle" x="1062.595" y="-99.3">concatenate_11: Concatenate</text><path fill="none" stroke="#000" d="M1152.158-81.5v-44"/><text font-family="Times,serif" font-size="14" text-anchor="middle" x="1179.992" y="-110.3">input:</text><path fill="none" stroke="#000" d="M1152.158-103.5h55.669"/><text font-family="Times,serif" font-size="14" text-anchor="middle" x="1179.992" y="-88.3">output:</text><path fill="none" stroke="#000" d="M1207.827-81.5v-44"/><text font-family="Times,serif" font-size="14" text-anchor="middle" x="1298.637" y="-110.3">[(None, 5000), (None, 5000)]</text><path fill="none" stroke="#000" d="M1207.827-103.5h181.62"/><text font-family="Times,serif" font-size="14" text-anchor="middle" x="1298.151" y="-88.3">(None, 10000)</text></g><g class="edge"><path d="M994.855-162.473l106.826 33.8" fill="none" stroke="#000"/><path stroke="#000" d="M1103.16-131.876l8.479 6.354-10.59.32 2.111-6.674z"/></g><g class="edge"><path d="M1488.484-162.473l-182.588 35.046" fill="none" stroke="#000"/><path stroke="#000" d="M1306.453-123.97l-10.48-1.552 9.16-5.323 1.32 6.875z"/></g><g class="node"><path fill="none" stroke="#000" d="M1057.503-.5v-44h247.473v44h-247.473z"/><text font-family="Times,serif" font-size="14" text-anchor="middle" x="1104.581" y="-18.3">output: Dense</text><path fill="none" stroke="#000" d="M1151.659-.5v-44"/><text font-family="Times,serif" font-size="14" text-anchor="middle" x="1179.493" y="-29.3">input:</text><path fill="none" stroke="#000" d="M1151.659-22.5h55.669"/><text font-family="Times,serif" font-size="14" text-anchor="middle" x="1179.493" y="-7.3">output:</text><path fill="none" stroke="#000" d="M1207.328-.5v-44"/><text font-family="Times,serif" font-size="14" text-anchor="middle" x="1256.152" y="-29.3">(None, 10000)</text><path fill="none" stroke="#000" d="M1207.328-22.5h97.648"/><text font-family="Times,serif" font-size="14" text-anchor="middle" x="1256.152" y="-7.3">(None, 6)</text></g><g class="edge"><path d="M1181.24-81.366v26.64" fill="none" stroke="#000"/><path stroke="#000" d="M1184.74-54.607l-3.5 10-3.5-10h7z"/></g></g></svg>